<svg id="Capa_1" data-name="Capa 1" xmlns="http://www.w3.org/2000/svg" viewBox="0 0 969.454 690.174"><defs><style>.cls-1{fill:#020202;}</style></defs><rect class="cls-1" x="510.125" y="291.169" width="62.861" height="120.141" transform="translate(-266.435 721.97) rotate(-90)"/><path class="cls-1" d="M613.084,394.128H470.027V308.351H613.084ZM492.943,371.212h97.225V331.267H492.943Z" transform="translate(-456.751 -170.826)"/><path class="cls-1" d="M610.2,391.54H472.909v-80.6H610.2ZM490.061,373.8h102.99V328.681H490.061Z" transform="translate(-456.751 -170.826)"/><path class="cls-1" d="M621.661,403H461.451V299.481h160.21ZM501.52,362.341h80.073v-22.2H501.52Z" transform="translate(-456.751 -170.826)"/><path class="cls-1" d="M601.332,191.159v62.847H555.65a15.739,15.739,0,0,0-15.723,15.723V585.316H477.08V269.729a78.562,78.562,0,0,1,78.57-78.57Z" transform="translate(-456.751 -170.826)"/><path class="cls-1" d="M551.386,596.775H465.622V269.729A90.129,90.129,0,0,1,555.649,179.7h57.142v85.764H555.649a4.268,4.268,0,0,0-4.263,4.264Zm-62.848-22.917h39.931V269.729a27.211,27.211,0,0,1,27.18-27.181h34.226V202.617H555.649a67.188,67.188,0,0,0-67.111,67.112Z" transform="translate(-456.751 -170.826)"/><path class="cls-1" d="M548.8,594.186H468.209V269.728a87.54,87.54,0,0,1,87.44-87.439H610.2v80.587H555.649a6.859,6.859,0,0,0-6.852,6.852ZM485.95,576.445h45.106V269.728a24.62,24.62,0,0,1,24.593-24.593h36.813V200.029H555.649a69.779,69.779,0,0,0-69.7,69.7Z" transform="translate(-456.751 -170.826)"/><path class="cls-1" d="M560.254,605.644h-103.5V269.728a99.011,99.011,0,0,1,98.9-98.9h66.012v103.5H560.254Zm-62.846-40.657H519.6V269.728a36.093,36.093,0,0,1,36.052-36.051H581V211.488H555.649a58.307,58.307,0,0,0-58.241,58.24Z" transform="translate(-456.751 -170.826)"/><path class="cls-1" d="M382.431,178.559H420.6a0,0,0,0,1,0,0V414.494a0,0,0,0,1,0,0H357.744a0,0,0,0,1,0,0V203.246A24.687,24.687,0,0,1,382.431,178.559Z"/><path class="cls-1" d="M888.814,596.78H803.037V412.246a74.4,74.4,0,0,1,74.319-74.32h11.458Zm-62.861-22.917H865.9V362.13a51.5,51.5,0,0,0-39.945,50.116Z" transform="translate(-456.751 -170.826)"/><path class="cls-1" d="M886.227,594.191h-80.6V421.116a80.6,80.6,0,0,1,80.6-80.6h0ZM823.366,576.45h45.12V358.982a54.078,54.078,0,0,0-45.12,53.264Z" transform="translate(-456.751 -170.826)"/><path class="cls-1" d="M897.685,605.649H794.167V421.115a92.163,92.163,0,0,1,92.06-92.059h11.458Zm-62.861-40.658h22.2V374.841a42.385,42.385,0,0,0-22.2,37.4Z" transform="translate(-456.751 -170.826)"/><path class="cls-1" d="M221.092,20.328h62.861a0,0,0,0,1,0,0V389.807a24.687,24.687,0,0,1-24.687,24.687H221.092a0,0,0,0,1,0,0V20.328A0,0,0,0,1,221.092,20.328Z"/><path class="cls-1" d="M677.844,596.78H666.386V179.7h85.777V522.459A74.4,74.4,0,0,1,677.844,596.78ZM689.3,202.612V572.576a51.5,51.5,0,0,0,39.945-50.117V202.612Z" transform="translate(-456.751 -170.826)"/><path class="cls-1" d="M668.974,594.191h0V182.284h80.6V513.59A80.6,80.6,0,0,1,668.974,594.191Zm17.741-394.166v375.7a54.079,54.079,0,0,0,45.118-53.263V200.025Z" transform="translate(-456.751 -170.826)"/><path class="cls-1" d="M668.974,605.649H657.516V170.826H761.032V513.591A92.163,92.163,0,0,1,668.974,605.649Zm29.2-394.166V559.861a42.389,42.389,0,0,0,22.2-37.4V211.483Z" transform="translate(-456.751 -170.826)"/><path class="cls-1" d="M1146.865,349.385V671.953c0,91.9-73.519,168.059-165.413,168.715a166.633,166.633,0,0,1-167.87-166.627v-.221h62.581c0,57.9,45.614,103.715,103.435,104.026,56.536.3,102.89-45.728,104.382-102.245a102.876,102.876,0,0,0-16.128-58.84h-.022A94.314,94.314,0,0,1,958.281,523.71V349.385h62.869V522.83c0,16.919,13,31.474,29.906,32.268a31.434,31.434,0,0,0,32.963-31.388V349.385Z" transform="translate(-456.751 -170.826)"/><path class="cls-1" d="M980.223,852.13a178.088,178.088,0,0,1-178.1-178.089V662.582l11.458-.221h74.04v11.458c0,51.629,40.428,92.29,92.039,92.569l.486,0c49.658,0,91.05-40.76,92.38-91.091a92.324,92.324,0,0,0-10.719-46.241c-3.061.269-6.147.4-9.236.4A105.78,105.78,0,0,1,946.823,523.71V337.926h85.785v184.9c0,10.99,8.516,20.331,18.985,20.822a19.976,19.976,0,0,0,20.967-19.942V337.926h85.765V671.952c0,98.65-79.308,179.477-176.791,180.173C981.1,852.128,980.658,852.13,980.223,852.13ZM825.449,685.277A155.172,155.172,0,0,0,980.227,829.214c.382,0,.761,0,1.143-.005,84.938-.607,154.038-71.151,154.038-157.257V360.843h-39.932V523.71a42.895,42.895,0,0,1-44.958,42.834c-22.894-1.074-40.827-20.276-40.827-43.714V360.843H969.739V523.71a82.853,82.853,0,0,0,96.224,81.748l.927-.154h7.189l3.407,5.251a114.461,114.461,0,0,1,17.948,65.35c-1.654,62.655-53.313,113.4-115.287,113.4-.205,0-.4,0-.61,0-60.521-.326-108.717-45.159-114.293-104.027Z" transform="translate(-456.751 -170.826)"/><path class="cls-1" d="M980.22,849.542a175.5,175.5,0,0,1-175.509-175.5v-8.871l8.87-.221h71.453v8.871c0,53.073,41.558,94.869,94.612,95.155l.5,0c51.05,0,93.6-41.887,94.965-93.611a94.712,94.712,0,0,0-11.855-49.047A103.191,103.191,0,0,1,949.409,523.71v-183.2h80.611V522.829c0,12.353,9.624,22.854,21.451,23.41a22.564,22.564,0,0,0,23.677-22.529v-183.2h80.587v331.44c0,97.234-78.155,176.9-174.22,177.583C981.084,849.54,980.651,849.542,980.22,849.542ZM822.692,682.691A157.757,157.757,0,0,0,981.389,831.8c86.352-.618,156.6-72.322,156.6-159.843v-313.7h-45.106V523.71a40.305,40.305,0,0,1-42.249,40.248c-21.511-1.011-38.359-19.077-38.359-41.129V358.254H967.15V523.71a85.433,85.433,0,0,0,99.233,84.3l.719-.119h5.564l2.642,4.065a111.882,111.882,0,0,1,17.539,63.88c-1.617,61.263-52.12,110.88-112.7,110.884l-.6,0c-59.959-.323-107.545-45.335-111.928-104.026Z" transform="translate(-456.751 -170.826)"/><path class="cls-1" d="M980.22,861A186.963,186.963,0,0,1,793.253,674.041V654l20.328-.5h82.912v20.331c0,46.681,36.551,83.445,83.215,83.7l.275,0c45.011,0,82.474-36.99,83.675-82.457a84.542,84.542,0,0,0-7.2-36.8,114.648,114.648,0,0,1-118.5-114.556V329.056H1041.48V522.828c0,6.218,4.821,11.7,10.53,11.966a11.173,11.173,0,0,0,8.244-3.06,10.853,10.853,0,0,0,3.436-8.024V329.056h103.5v342.9c0,103.507-83.259,188.31-185.6,189.041ZM835.294,694.15A146.316,146.316,0,0,0,980.271,820.344c.347,0,.691,0,1.039,0,80.077-.574,145.226-67.14,145.226-148.385V369.713h-22.19v154a51.763,51.763,0,0,1-54.26,51.694c-27.619-1.3-49.265-24.394-49.265-52.576V369.713H978.609v154a73.98,73.98,0,0,0,85.9,73l1.646-.274h12.731l6.028,9.283a123.314,123.314,0,0,1,19.385,70.425c-1.778,67.287-57.473,122.035-124.156,122.037h-.6c-61.881-.333-112.613-44.348-122.118-104.026Z" transform="translate(-456.751 -170.826)"/><path class="cls-1" d="M1397.782,497.81c0,1.686-.089,3.344-.244,5V585.32h-63.091V498.275c0-18.366-19.759-33.693-46.082-37.343a88.968,88.968,0,0,0-12.108-.828c-1.375,0-2.75.029-4.08.1V585.32h-62.869V349.385h62.869v63.866l97.4-63.866,27.964,39.96-60.275,39.524C1373.454,442.668,1397.782,468.378,1397.782,497.81Z" transform="translate(-456.751 -170.826)"/><path class="cls-1" d="M1409,596.78h-86.007V498.274c0-11.956-15.561-23.131-36.2-25.992q-1.571-.216-3.158-.368V596.78h-85.785V337.926h85.785v54.11l88.953-58.329L1413.7,392.45l-52.979,34.741c30.376,17.072,48.523,42.924,48.523,70.618,0,1.816-.079,3.627-.243,5.519Zm-63.09-22.917h40.173l.05-72.128c.132-1.374.194-2.659.194-3.926,0-23.422-20.363-45.735-53.144-58.234l-20.954-7.99,69.155-45.347-14.82-21.175-105.842,69.4V360.843h-39.952v213.02h39.952v-124.5l10.826-.6a97.664,97.664,0,0,1,18.384.816c32.964,4.571,55.978,24.593,55.978,48.693Z" transform="translate(-456.751 -170.826)"/><path class="cls-1" d="M1406.408,594.191h-80.832V498.275c0-13.243-16.519-25.518-38.427-28.556-2.014-.277-4.054-.479-6.1-.6V594.191h-80.609V340.514h80.609v56.312l90.859-59.578,38.141,54.5-54.373,35.657c31.822,16.554,50.979,42.548,50.979,70.4,0,1.763-.08,3.535-.245,5.406Zm-63.091-17.741h45.35l.039-74.47c.139-1.47.206-2.834.206-4.171,0-24.521-21-47.76-54.807-60.652l-16.223-6.185,67.147-44.032-17.788-25.42-103.935,68.155V358.254h-45.127v218.2h45.127V451.812l8.381-.464a94.943,94.943,0,0,1,17.892.8c31.642,4.386,53.738,23.354,53.738,46.128Z" transform="translate(-456.751 -170.826)"/><path class="cls-1" d="M1417.865,605.649H1314.117V498.274c0-4.768-8.064-12.276-21.613-15.828v123.2H1188.979V329.056H1292.5v46.555l82.415-54.041,51.286,73.283-49.127,32.219c25.985,18.513,41.034,44.021,41.034,70.737,0,1.95-.08,3.885-.247,5.895Zm-63.089-40.658h22.439l.084-64.071c.105-1.12.154-2.137.154-3.111,0-19.651-18.174-38.789-47.431-49.947l-37.18-14.172,76.03-49.856-4.645-6.636-95.858,62.858,2.685-.148a106.406,106.406,0,0,1,20.095.889c37.463,5.192,63.627,28.827,63.627,57.477Zm-125.138,0h22.21V369.713h-22.21Z" transform="translate(-456.751 -170.826)"/></svg>